# xmcd
#
# Track frame offsets:
#	150
#	10916
#	23337
#	40986
#	53261
#	63880
#	76521
#	86988
#	95619
#	111921
#	123738
#	135488
#	146037
#	154962
#	166451
#	179827
#	191207
#
# Disc length: 2734 seconds
#
# Revision: 0
# Processed by: cddbd v1.5.2PL0 Copyright (c) Steve Scherf et al.
# Submitted via: EasyCDDAExtractor 11.0.2.1
#
DISCID=e40aac11
DTITLE=OJ Hanssen - After the lovin'
DYEAR=2006
DGENRE=Country
TTITLE0=Here comes heaven
TTITLE1=Somebody like me
TTITLE2=After the lovin'
TTITLE3=Little old wine drinker me
TTITLE4=What's he doing in my world
TTITLE5=It's four in the morning
TTITLE6=Anytime
TTITLE7=Welcome to my world
TTITLE8=Everybody loves somebody
TTITLE9=That's all that matters
TTITLE10=Take good care of her
TTITLE11=Abiline
TTITLE12=Blue, blue day
TTITLE13=Candy kisses
TTITLE14=Make the world go away
TTITLE15=Turn the world around
TTITLE16=The last waltz
EXTD=
EXTT0=
EXTT1=
EXTT2=
EXTT3=
EXTT4=
EXTT5=
EXTT6=
EXTT7=
EXTT8=
EXTT9=
EXTT10=
EXTT11=
EXTT12=
EXTT13=
EXTT14=
EXTT15=
EXTT16=
PLAYORDER=
